<?xml version="1.0" encoding="UTF-8" standalone="no"?>
<svg
   width="2048"
   zoomAndPan="magnify"
   viewBox="0 0 1536 1535.999932"
   height="2048"
   preserveAspectRatio="xMidYMid meet"
   version="1.2"
   id="svg2"
   sodipodi:docname="logo-phi-q-svg-final-color.svg"
   inkscape:version="1.4.2 (f4327f4, 2025-05-13)"
   inkscape:export-filename="logo-phi-q-svg-final-color.png"
   inkscape:export-xdpi="96"
   inkscape:export-ydpi="96"
   xmlns:inkscape="http://www.inkscape.org/namespaces/inkscape"
   xmlns:sodipodi="http://sodipodi.sourceforge.net/DTD/sodipodi-0.dtd"
   xmlns="http://www.w3.org/2000/svg"
   xmlns:svg="http://www.w3.org/2000/svg">
  <defs
     id="defs2" />
  <sodipodi:namedview
     id="namedview2"
     pagecolor="#ffffff"
     bordercolor="#000000"
     borderopacity="0.25"
     inkscape:showpageshadow="2"
     inkscape:pageopacity="0.0"
     inkscape:pagecheckerboard="0"
     inkscape:deskcolor="#d1d1d1"
     inkscape:zoom="0.39404297"
     inkscape:cx="687.74226"
     inkscape:cy="1016.3866"
     inkscape:window-width="1920"
     inkscape:window-height="1009"
     inkscape:window-x="-8"
     inkscape:window-y="-8"
     inkscape:window-maximized="1"
     inkscape:current-layer="svg2" />
  <path
     style="fill:#1a1a1a;fill-opacity:1;fill-rule:nonzero;stroke:none"
     d="m 566.38281,31.652344 c 181.17702,0 -21.98859,1.136993 298.71094,-0.253884 26.77417,0.124459 28.70139,2.62337 31.09766,11.992187 0.71093,4.351563 0.62109,7.417969 -0.56641,11.699219 -4.66677,6.194071 -13.42051,6.9315 -20.63281,7.425781 -35.35372,2.20771 -56.15304,2.035569 -80.88281,30.382813 -24.40764,42.42797 -20.23829,91.62784 -20.23829,115.57812 11.78862,0 85.66384,2.48855 158.41407,21.8125 l 3.91406,1.01953 c 32.16797,8.46875 63.96878,19.08594 94.12498,33.17969 2.7031,1.25391 5.418,2.48438 8.1406,3.69141 19.8321,8.90234 38.8204,19.97265 56.8243,32.13281 l 2.207,1.47656 c 15.8672,10.63672 30.9883,22.2461 45.3594,34.83203 1.5508,1.35938 3.1093,2.71094 4.6718,4.05469 31.7061,27.83753 62.9418,65.52773 90.1016,116.90234 l 1.5391,2.89844 c 63.5267,120.7827 88.8371,338.20016 -20.7344,513.53516 -4.3359,6.84375 -8.9297,13.5039 -13.7813,19.98828 -34.5548,46.32868 -49.3745,59.32398 -64.1875,71.94918 -100.4244,80.9153 -235.87983,130.5669 -366.59371,128.5899 -7.14259,80.6454 2.70233,178.0327 98.07422,185.8906 22.23047,1.7891 22.23047,1.7891 30.78125,6.8867 2.20703,3.8672 2.42969,5.9336 2.58203,10.332 0.0924,6.3706 -1.88255,11.7046 -6.3125,16.1407 -118.38941,2.5479 -237.26864,1.4673 -355.8164,1.4394 -3.66797,0.031 -7.33588,10e-5 -11.00391,0 -3.03906,-0.3086 -4.85156,-0.918 -7.40234,-2.5821 -2.53907,-4.0781 -3.35547,-6.9218 -3.73438,-11.7187 -0.16406,-9.7735 -0.16406,-9.7735 1.10156,-13.8438 1.48438,-1.9843 1.48438,-1.9843 3.94922,-3.2031 122.17156,-2.9746 127.97239,-89.3396 127.25,-189.3359 l -3.19921,-0.1758 c -4.05079,-0.2227 -8.10157,-0.4492 -12.15235,-0.6797 -1.72656,-0.098 -3.45312,-0.1953 -5.18359,-0.2891 -190.75746,-10.3556 -325.53352,-86.8574 -391.56641,-172.1972 -1.78906,-2.1094 -3.58203,-4.2148 -5.3789,-6.3125 -55.36519,-66.57294 -79.78273,-141.6452 -89.89844,-184.24216 l -0.8086,-3.28907 c -21.79296,-89.33984 -19.84765,-188.5039 5.66797,-276.83593 53.01008,-178.10542 176.3403,-266.41346 302.78125,-308.75391 l 3.64453,-1.22265 c 61.87891,-20.51954 118.30854,-31.17367 196.09375,-32.07032 -2.46356,-43.44772 2.41103,-112.083727 -42.35156,-136.781248 -17.02412,-7.333388 -36.12535,-7.954814 -54.34766,-9.15625 -3.2539,-0.226562 -6.5039,-0.472656 -9.7539,-0.738281 l -2.98828,-0.171875 c -2.66407,-0.21875 -5.07422,-0.503906 -7.64453,-1.230468 -3.48829,-2.714844 -3.48829,-2.714844 -5.74219,-5.742188 -1.18635,-6.466707 -1.78521,-13.571865 2.19922,-19.125 3.54297,-2.683594 3.54297,-2.683594 5.97265,-3.246094 9.21852,-0.537199 18.4664,-0.526869 27.69922,-0.628905 M 773.87109,244.0625 c -2.0756,15.24045 -1.28149,30.66957 -1.30096,46.01172 0.38475,2012.03128 -1.23707,-919.91556 0.008,709.93748 -0.25388,114.6133 2.62719,-165.69965 0.36455,155.0898 129.78762,2.9908 223.73175,-70.1081 259.20942,-102.9062 1.1758,-1.0547 2.3516,-2.1133 3.5274,-3.168 8.9297,-8.0546 17.1992,-16.5312 25.1719,-25.5273 l 1.7148,-1.9297 c 20.3497,-22.93742 44.2948,-55.59569 63.7149,-97.94139 l 1.3203,-2.86719 c 22.4331,-49.19727 31.9677,-88.3708 38.3672,-131.85547 16.5517,-113.79305 15.4501,-446.8539 -308.30121,-531.06641 l -3.59766,-0.94922 c -16.47656,-4.28125 -33.11328,-7.20703 -49.92187,-9.81249 l -2.97657,-0.46485 c -2.82031,-0.4375 -5.64843,-0.86719 -8.47656,-1.28516 l -2.53515,-0.39062 c -5.48438,-0.79297 -10.75,-0.98437 -16.28907,-0.875 m -136.97265,1.18359 c -131.9255,18.165 -334.2461,91.50877 -376.53516,366.50391 -57.45588,393.8729 237.44705,547.5016 392.97656,543.7578 2.76551,-303.65522 0.50964,-607.70746 -3.9e-4,-911.4453 -5.57422,-0.0547 -10.92578,0.41016 -16.4414,1.18359"
     id="path1"
     sodipodi:nodetypes="ccccccccccccccccccccccccccccccccscccccccccccccccccccccccccccccccccccccccccc"
     inkscape:label="path1" />
  <path
     style="fill:#d4a037;fill-opacity:1;fill-rule:nonzero;stroke:none;stroke-opacity:1"
     d="m 772.37109,917.74536 c 32.12891,2.6406 63.89453,12.5898 92.92969,26.4414 81.69606,33.7115 137.40532,84.65764 194.95312,150.07424 36.0025,35.7399 38.0087,41.7055 86.5469,90.2188 2.9492,2.9531 5.8984,5.9101 8.8398,8.875 2.3125,2.3281 4.6328,4.6523 6.9532,6.9726 1.6054,1.6055 3.207,3.2149 4.8046,4.8282 6.0157,5.9961 12.3399,11.6367 18.9805,16.9296 4.1563,3.3321 7.9883,6.9493 11.875,10.586 4.7617,4.3242 9.8672,8.25 14.918,12.2305 l 2.7578,2.1796 c 22.6875,17.836 46.582,33.2735 71.8555,47.1797 l 2.5898,1.4414 c 12.5469,6.9766 25.3984,12.7813 38.7344,18.0743 l 2.5898,1.0468 c 44.8164,18.0547 90.9531,21.9883 138.6016,15.5274 6.4844,-0.9532 12.914,-2.1172 19.3359,-3.4297 3.625,-0.5195 3.625,-0.5195 6.2656,-0.2188 1.9532,0.8477 1.9532,0.8477 4.5352,3.7891 l 2.0078,2.7969 c -4.25,12.0468 -15.1289,21.7383 -24.5703,29.957 -6.7539,5.5547 -13.8594,10.3086 -21.3437,14.8125 l -3.6875,2.2617 c -10.2422,6.0938 -20.7579,10.75 -31.8985,14.9571 l -2.3086,0.9062 c -21.7666,8.4616 -80.9568,32.4348 -172.664,-1.4375 -12.8516,-4.418 -25.2344,-9.4844 -37.3946,-15.5391 l -3.3984,-1.6796 c -57.4071,-28.5808 -102.3459,-69.1788 -125.3008,-92.3477 -19.0668,-17.9027 -60.7472,-65.5818 -88.82812,-99.8945 -9.18359,-11.2618 -18.40625,-22.4883 -27.90234,-33.4883 -53.90248,-64.0228 -110.2626,-126.359 -190.77735,-155.99224 0,-32.4861 -9e-5,-44.2554 -9e-5,-78.0586"
     id="path2"
     sodipodi:nodetypes="cccccsccccccccccccccccccccccccccc" />
</svg>
